<svg xmlns="http://www.w3.org/2000/svg" viewBox="0 0 1080 1080" fill="none" aria-hidden="true">
  <path fill="#ffffff" d="M231.03,419.46c28.55-2.49,57.12-5.16,84.61-12.24,81.79-21.07,142.65-79.49,163-162.25,45.9-186.67,21.42-226.45,101-232.57,60.37-4.63,91.73,67.45,109,113.78,36.95,99.1,52.38,212.25,144.1,277.76,34.29,24.5,72.81,41.1,111.29,57.73,31.32,13.54,72.66,23.48,94.33,51.68,22.11,28.76,16.27,72.11-5.43,101.19-21.7,29.07-55.74,46.27-89.93,58.4-51.53,18.28-103.81,29.41-145.2,67.38-73.02,67-81.43,169.36-124.81,253.56-15.75,30.58-46.92,87.01-90.32,71.23-33.66-12.24-85.16-30.58-115.31-209.54-34.28-203.55-270.28-221.94-270.28-221.94,0,0-136.81-11.6-160.38-58.74-23.57-47.14,2.14-87.85,38.59-113.57,46.74-32.97,101.2-37.08,155.72-41.84Z"/>
</svg>
