<svg xmlns="http://www.w3.org/2000/svg" viewBox="0 0 1080 1080" fill="none" aria-hidden="true">
  <path fill="#ffffff" d="M297.96,1071.35c-18.07,0-31.44-9.17-39.75-27.25-18.11-39.42-.94-82.06,16.57-118.93,23.57-49.63,38.34-93.34,45.16-133.65,5.59-33.03,7.61-81.55-14.5-125.14-29.24-57.63-84.25-91.05-137.45-123.38l-3.84-2.34c-2.33-1.42-5.11-3.07-8.23-4.92-32.24-19.16-99.32-59.03-108.52-97.86-2.28-9.61-.77-18.64,4.47-26.84,10.59-16.54,27.93-28.59,51.56-35.81,19.39-5.92,43.13-8.8,72.59-8.8,20.56,0,41.34,1.43,57.15,2.68,5.98.47,11.81.96,17.45,1.44,14.31,1.21,27.82,2.35,38.89,2.71,3.19.11,6.41.16,9.55.16,37.12,0,70.79-7.4,100.09-22,30.5-15.19,56.41-38.28,77.02-68.62,42.78-62.98,59.89-138.92,74.99-205.92,7.02-31.14,21.13-68.26,48.51-68.26,10.29,0,21.86,5.29,34.4,15.71,15.12,12.57,24.8,30.09,32.27,45.56,15.69,32.49,26.61,68.84,37.18,104,18.45,61.4,37.53,124.89,82.73,171.75,30.04,31.15,69.83,57.6,121.63,80.86,9.65,4.33,21.41,8.19,33.86,12.28,33.68,11.05,71.86,23.58,85.74,51.02,7.85,15.52,8.27,34.26,1.11,50.11-6.78,15.02-19.47,26.34-31.89,36.64-27.8,23.08-56.6,48.04-76.45,77.23-20.28,29.82-30.45,62.48-32.01,102.77-.65,16.79,0,34.15.64,50.95,1.58,41.74,3.21,84.91-14.78,124.12-6.85,14.93-15.1,24.02-25.23,27.81-4.01,1.5-8.57,2.23-13.94,2.23-4.15,0-8.34-.44-11.53-.82-39.62-4.77-75-20.27-104.38-34.8-35.12-17.37-69.28-26.18-101.52-26.18s-64,8.89-93.87,26.42c-31.5,18.49-60.08,41.98-87.72,64.69-18.26,15-37.14,30.52-56.69,44.45-9.05,6.45-22.83,15.9-37.99,23.48-16.5,8.25-31.05,12.44-43.27,12.44Z"/>
  <path fill="#ffffff" d="M599.68,9.15c10.17,0,21.64,5.25,34.08,15.6,15.05,12.51,24.69,29.97,32.14,45.39,15.67,32.45,26.59,68.78,37.15,103.92,18.47,61.46,37.56,125,82.85,171.96,30.09,31.19,69.92,57.68,121.78,80.97,9.67,4.34,21.44,8.21,33.91,12.3,33.59,11.02,71.66,23.51,85.45,50.77,7.79,15.39,8.2,33.96,1.1,49.68-6.74,14.92-19.38,26.19-31.75,36.46-27.83,23.1-56.66,48.09-76.54,77.33-20.34,29.9-30.54,62.64-32.1,103.03-.65,16.8,0,34.18.64,50.98,1.58,41.69,3.21,84.79-14.74,123.89-6.79,14.8-14.95,23.81-24.95,27.55-3.96,1.48-8.46,2.2-13.77,2.2-4.12,0-8.29-.44-11.47-.82-39.55-4.76-74.88-20.24-104.22-34.76-35.19-17.4-69.42-26.23-101.74-26.23-32.51,0-64.18,8.91-94.12,26.49-31.53,18.51-60.13,42.01-87.79,64.73-18.25,15-37.13,30.51-56.66,44.42-12.43,8.86-50.27,35.83-80.97,35.83-17.86,0-31.08-9.07-39.3-26.95-18.02-39.22-.9-81.73,16.57-118.5,23.59-49.67,38.37-93.43,45.2-133.78,5.6-33.1,7.63-81.73-14.55-125.45-29.31-57.76-84.38-91.22-137.63-123.58l-3.84-2.34c-2.34-1.42-5.07-3.05-8.24-4.93-32.18-19.12-99.14-58.92-108.29-97.54-2.25-9.48-.76-18.38,4.41-26.45,10.52-16.44,27.78-28.41,51.29-35.6,19.34-5.91,43.04-8.78,72.45-8.78,20.53,0,41.3,1.43,57.11,2.68,5.98.47,11.81.96,17.45,1.44,14.31,1.21,27.83,2.35,38.92,2.72,3.2.11,6.42.16,9.57.16,37.2,0,70.95-7.42,100.31-22.05,30.58-15.23,56.56-38.38,77.22-68.79,42.83-63.06,59.96-139.05,75.07-206.09,6.98-30.96,20.97-67.87,48.02-67.87M599.68,8.15c-26.88,0-41.41,35-48.99,68.65-16.07,71.32-33.15,144.26-74.92,205.75-42.13,62.02-103.86,90.4-176.7,90.4-3.15,0-6.34-.05-9.54-.16-15.35-.51-34.91-2.46-56.32-4.15-18.21-1.44-37.75-2.68-57.19-2.68-51.07,0-101.37,8.59-124.57,44.84-31.76,49.63,80.77,111.06,112.44,130.32,54.43,33.1,111.23,66.62,141.1,125.51,19.28,38.01,21.57,82.82,14.46,124.83-7.82,46.21-25.1,91.37-45.12,133.52-17.41,36.65-34.89,79.46-16.57,119.35,9.29,20.23,23.87,27.54,40.21,27.54,27.89,0,60.91-21.3,81.55-36.01,49.15-35.03,92.11-78.43,144.37-109.11,30.84-18.11,62.1-26.36,93.61-26.36,33.55,0,67.39,9.35,101.3,26.13,33.51,16.58,67.1,30.34,104.54,34.85,3.82.46,7.72.83,11.59.83,4.83,0,9.61-.57,14.12-2.26,12.16-4.55,20.09-16.27,25.51-28.07,25.32-55.18,11.93-116.92,14.18-175.26,3.31-85.77,45.73-127.71,108.28-179.63,12.63-10.48,25.27-21.86,32.03-36.82,7.17-15.88,6.75-35-1.12-50.54-19.14-37.83-84.2-47.51-119.84-63.52-44.64-20.05-87.28-45.3-121.47-80.76-71.1-73.72-76.84-186.63-119.81-275.62-8.19-16.95-17.92-33.69-32.4-45.72-13.4-11.15-24.89-15.83-34.72-15.83h0Z"/>
</svg>
